# xmcd
#
# Track frame offsets: 
#        150
#        14271
#        31118
#        86424
#        114446
#        137722
#        158349
#        181335
#        237980
#        251997
#        296178
#        309151
#        347135
#
# Disc length: 4939 seconds
#
# Revision: 0
# Processed by: cddbd v1.5.2PL0 Copyright (c) Steve Scherf et al.
# Submitted via: ExactAudioCopyFreeDBPlugin 1.0
#
DISCID=a813490d
DTITLE=Vaughan, Stevie Ray LIVE - The Spectrum, Montreal 08-17-84
DYEAR=1984
DGENRE=Blues
TTITLE0=Scuttle Buttin'
TTITLE1=Testify
TTITLE2=Voodoo Child (Slight Return)
TTITLE3=The Things (That) I Used To Do
TTITLE4=Couldn't Stand The Weather
TTITLE5=Cold Shot
TTITLE6=Pride And Joy
TTITLE7=Tin Pan Alley
TTITLE8=Love Struck Baby
TTITLE9=Texas Flood
TTITLE10=Band Introductions
TTITLE11=Lenny
TTITLE12=Rude Mood
EXTD=
EXTT0=
EXTT1=
EXTT2=
EXTT3=
EXTT4=
EXTT5=
EXTT6=
EXTT7=
EXTT8=
EXTT9=
EXTT10=
EXTT11=
EXTT12=
PLAYORDER=
